<svg width="74" height="42" viewBox="0 0 74 42" fill="none" xmlns="http://www.w3.org/2000/svg">
<path d="M4.608 38.18C4.024 38.18 3.492 38.084 3.012 37.892C2.532 37.7 2.12 37.42 1.776 37.052C1.432 36.684 1.164 36.232 0.972 35.696C0.788 35.152 0.696 34.532 0.696 33.836C0.696 33.14 0.8 32.524 1.008 31.988C1.224 31.444 1.512 30.988 1.872 30.62C2.232 30.252 2.652 29.972 3.132 29.78C3.612 29.588 4.124 29.492 4.668 29.492C5.012 29.492 5.32 29.516 5.592 29.564C5.872 29.612 6.112 29.668 6.312 29.732C6.52 29.796 6.688 29.86 6.816 29.924C6.944 29.988 7.032 30.036 7.08 30.068L6.744 31.028C6.672 30.98 6.568 30.928 6.432 30.872C6.296 30.816 6.14 30.76 5.964 30.704C5.796 30.648 5.608 30.604 5.4 30.572C5.2 30.532 4.996 30.512 4.788 30.512C4.348 30.512 3.952 30.588 3.6 30.74C3.248 30.892 2.948 31.112 2.7 31.4C2.452 31.688 2.26 32.04 2.124 32.456C1.996 32.864 1.932 33.324 1.932 33.836C1.932 34.332 1.988 34.784 2.1 35.192C2.22 35.6 2.396 35.952 2.628 36.248C2.86 36.536 3.148 36.76 3.492 36.92C3.844 37.08 4.252 37.16 4.716 37.16C5.252 37.16 5.696 37.104 6.048 36.992C6.4 36.88 6.664 36.78 6.84 36.692L7.14 37.652C7.084 37.692 6.984 37.744 6.84 37.808C6.696 37.864 6.516 37.92 6.3 37.976C6.084 38.032 5.832 38.08 5.544 38.12C5.256 38.16 4.944 38.18 4.608 38.18ZM21.643 33.836C21.643 33.124 21.747 32.496 21.955 31.952C22.171 31.408 22.459 30.956 22.819 30.596C23.187 30.228 23.611 29.952 24.091 29.768C24.579 29.584 25.095 29.492 25.639 29.492C26.175 29.492 26.679 29.584 27.151 29.768C27.631 29.952 28.051 30.228 28.411 30.596C28.771 30.956 29.055 31.408 29.263 31.952C29.479 32.496 29.587 33.124 29.587 33.836C29.587 34.548 29.479 35.176 29.263 35.72C29.055 36.264 28.771 36.72 28.411 37.088C28.051 37.448 27.631 37.72 27.151 37.904C26.679 38.088 26.175 38.18 25.639 38.18C25.095 38.18 24.579 38.088 24.091 37.904C23.611 37.72 23.187 37.448 22.819 37.088C22.459 36.72 22.171 36.264 21.955 35.72C21.747 35.176 21.643 34.548 21.643 33.836ZM22.867 33.836C22.867 34.34 22.931 34.8 23.059 35.216C23.187 35.624 23.367 35.972 23.599 36.26C23.839 36.548 24.127 36.772 24.463 36.932C24.807 37.084 25.191 37.16 25.615 37.16C26.039 37.16 26.419 37.084 26.755 36.932C27.091 36.772 27.375 36.548 27.607 36.26C27.847 35.972 28.031 35.624 28.159 35.216C28.287 34.8 28.351 34.34 28.351 33.836C28.351 33.332 28.287 32.876 28.159 32.468C28.031 32.052 27.847 31.7 27.607 31.412C27.375 31.124 27.091 30.904 26.755 30.752C26.419 30.592 26.039 30.512 25.615 30.512C25.191 30.512 24.807 30.592 24.463 30.752C24.127 30.904 23.839 31.124 23.599 31.412C23.367 31.7 23.187 32.052 23.059 32.468C22.931 32.876 22.867 33.332 22.867 33.836ZM51.8869 33.836C51.8869 34.556 51.7749 35.184 51.5509 35.72C51.3269 36.248 51.0109 36.688 50.6029 37.04C50.1949 37.384 49.7069 37.644 49.1389 37.82C48.5709 37.988 47.9469 38.072 47.2669 38.072C46.9309 38.072 46.5589 38.056 46.1509 38.024C45.7509 38 45.3869 37.948 45.0589 37.868V29.804C45.3869 29.724 45.7509 29.672 46.1509 29.648C46.5589 29.616 46.9309 29.6 47.2669 29.6C47.9469 29.6 48.5709 29.688 49.1389 29.864C49.7069 30.032 50.1949 30.292 50.6029 30.644C51.0109 30.988 51.3269 31.428 51.5509 31.964C51.7749 32.492 51.8869 33.116 51.8869 33.836ZM47.3629 37.052C48.4669 37.052 49.2909 36.772 49.8349 36.212C50.3789 35.644 50.6509 34.852 50.6509 33.836C50.6509 32.82 50.3789 32.032 49.8349 31.472C49.2909 30.904 48.4669 30.62 47.3629 30.62C47.0349 30.62 46.7789 30.624 46.5949 30.632C46.4189 30.64 46.2949 30.648 46.2229 30.656V37.016C46.2949 37.024 46.4189 37.032 46.5949 37.04C46.7789 37.048 47.0349 37.052 47.3629 37.052ZM67.3536 38V29.684H72.4296V30.68H68.5176V33.152H71.9976V34.124H68.5176V37.004H72.7296V38H67.3536Z" fill="white"/>
<path d="M5.38 18.62C5.82 18.62 6.18 18.5867 6.46 18.52C6.75333 18.44 6.98667 18.34 7.16 18.22C7.33333 18.0867 7.45333 17.9333 7.52 17.76C7.58667 17.5867 7.62 17.3933 7.62 17.18C7.62 16.7267 7.40667 16.3533 6.98 16.06C6.55333 15.7533 5.82 15.4267 4.78 15.08C4.32667 14.92 3.87333 14.74 3.42 14.54C2.96667 14.3267 2.56 14.0667 2.2 13.76C1.84 13.44 1.54667 13.06 1.32 12.62C1.09333 12.1667 0.98 11.62 0.98 10.98C0.98 10.34 1.1 9.76667 1.34 9.26C1.58 8.74 1.92 8.3 2.36 7.94C2.8 7.58 3.33333 7.30667 3.96 7.12C4.58667 6.92 5.29333 6.82 6.08 6.82C7.01333 6.82 7.82 6.92 8.5 7.12C9.18 7.32 9.74 7.54 10.18 7.78L9.28 10.24C8.89333 10.04 8.46 9.86667 7.98 9.72C7.51333 9.56 6.94667 9.48 6.28 9.48C5.53333 9.48 4.99333 9.58667 4.66 9.8C4.34 10 4.18 10.3133 4.18 10.74C4.18 10.9933 4.24 11.2067 4.36 11.38C4.48 11.5533 4.64667 11.7133 4.86 11.86C5.08667 11.9933 5.34 12.12 5.62 12.24C5.91333 12.3467 6.23333 12.46 6.58 12.58C7.3 12.8467 7.92667 13.1133 8.46 13.38C8.99333 13.6333 9.43333 13.9333 9.78 14.28C10.14 14.6267 10.4067 15.0333 10.58 15.5C10.7533 15.9667 10.84 16.5333 10.84 17.2C10.84 18.4933 10.3867 19.5 9.48 20.22C8.57333 20.9267 7.20667 21.28 5.38 21.28C4.76667 21.28 4.21333 21.24 3.72 21.16C3.22667 21.0933 2.78667 21.0067 2.4 20.9C2.02667 20.7933 1.7 20.68 1.42 20.56C1.15333 20.44 0.926667 20.3267 0.74 20.22L1.62 17.74C2.03333 17.9667 2.54 18.1733 3.14 18.36C3.75333 18.5333 4.5 18.62 5.38 18.62ZM15.8606 14.06C15.8606 14.74 15.9406 15.3533 16.1006 15.9C16.274 16.4467 16.514 16.92 16.8206 17.32C17.1406 17.7067 17.5273 18.0067 17.9806 18.22C18.434 18.4333 18.954 18.54 19.5406 18.54C20.114 18.54 20.6273 18.4333 21.0806 18.22C21.5473 18.0067 21.934 17.7067 22.2406 17.32C22.5606 16.92 22.8006 16.4467 22.9606 15.9C23.134 15.3533 23.2206 14.74 23.2206 14.06C23.2206 13.38 23.134 12.7667 22.9606 12.22C22.8006 11.66 22.5606 11.1867 22.2406 10.8C21.934 10.4 21.5473 10.0933 21.0806 9.88C20.6273 9.66667 20.114 9.56 19.5406 9.56C18.954 9.56 18.434 9.67333 17.9806 9.9C17.5273 10.1133 17.1406 10.42 16.8206 10.82C16.514 11.2067 16.274 11.68 16.1006 12.24C15.9406 12.7867 15.8606 13.3933 15.8606 14.06ZM26.4406 14.06C26.4406 15.2467 26.2606 16.2933 25.9006 17.2C25.554 18.0933 25.074 18.8467 24.4606 19.46C23.8473 20.06 23.114 20.5133 22.2606 20.82C21.4206 21.1267 20.514 21.28 19.5406 21.28C18.594 21.28 17.7006 21.1267 16.8606 20.82C16.0206 20.5133 15.2873 20.06 14.6606 19.46C14.034 18.8467 13.5406 18.0933 13.1806 17.2C12.8206 16.2933 12.6406 15.2467 12.6406 14.06C12.6406 12.8733 12.8273 11.8333 13.2006 10.94C13.574 10.0333 14.074 9.27333 14.7006 8.66C15.3406 8.04667 16.074 7.58667 16.9006 7.28C17.7406 6.97333 18.6206 6.82 19.5406 6.82C20.4873 6.82 21.3806 6.97333 22.2206 7.28C23.0606 7.58667 23.794 8.04667 24.4206 8.66C25.0473 9.27333 25.5406 10.0333 25.9006 10.94C26.2606 11.8333 26.4406 12.8733 26.4406 14.06ZM35.3614 21.28C33.1081 21.28 31.3881 20.6533 30.2014 19.4C29.0281 18.1467 28.4414 16.3667 28.4414 14.06C28.4414 12.9133 28.6214 11.8933 28.9814 11C29.3414 10.0933 29.8347 9.33333 30.4614 8.72C31.0881 8.09333 31.8347 7.62 32.7014 7.3C33.5681 6.98 34.5081 6.82 35.5214 6.82C36.1081 6.82 36.6414 6.86667 37.1214 6.96C37.6014 7.04 38.0214 7.14 38.3814 7.26C38.7414 7.36667 39.0414 7.48 39.2814 7.6C39.5214 7.72 39.6947 7.81333 39.8014 7.88L38.9014 10.4C38.4747 10.1733 37.9747 9.98 37.4014 9.82C36.8414 9.66 36.2014 9.58 35.4814 9.58C35.0014 9.58 34.5281 9.66 34.0614 9.82C33.6081 9.98 33.2014 10.24 32.8414 10.6C32.4947 10.9467 32.2147 11.4 32.0014 11.96C31.7881 12.52 31.6814 13.2 31.6814 14C31.6814 14.64 31.7481 15.24 31.8814 15.8C32.0281 16.3467 32.2547 16.82 32.5614 17.22C32.8814 17.62 33.2947 17.94 33.8014 18.18C34.3081 18.4067 34.9214 18.52 35.6414 18.52C36.0947 18.52 36.5014 18.4933 36.8614 18.44C37.2214 18.3867 37.5414 18.3267 37.8214 18.26C38.1014 18.18 38.3481 18.0933 38.5614 18C38.7747 17.9067 38.9681 17.82 39.1414 17.74L40.0014 20.24C39.5614 20.5067 38.9414 20.7467 38.1414 20.96C37.3414 21.1733 36.4147 21.28 35.3614 21.28ZM42.0102 7.14H45.1302V21H42.0102V7.14ZM57.6183 21C57.4716 20.52 57.3049 20.0267 57.1183 19.52C56.9449 19.0133 56.7716 18.5067 56.5983 18H51.1983C51.0249 18.5067 50.8449 19.0133 50.6583 19.52C50.4849 20.0267 50.3249 20.52 50.1783 21H46.9383C47.4583 19.5067 47.9516 18.1267 48.4183 16.86C48.8849 15.5933 49.3383 14.4 49.7783 13.28C50.2316 12.16 50.6716 11.1 51.0983 10.1C51.5383 9.08667 51.9916 8.1 52.4583 7.14H55.4383C55.8916 8.1 56.3383 9.08667 56.7783 10.1C57.2183 11.1 57.6583 12.16 58.0983 13.28C58.5516 14.4 59.0116 15.5933 59.4783 16.86C59.9449 18.1267 60.4383 19.5067 60.9583 21H57.6183ZM53.8783 10.28C53.8116 10.48 53.7116 10.7533 53.5783 11.1C53.4449 11.4467 53.2916 11.8467 53.1183 12.3C52.9449 12.7533 52.7516 13.2533 52.5383 13.8C52.3383 14.3467 52.1316 14.92 51.9183 15.52H55.8583C55.6449 14.92 55.4383 14.3467 55.2383 13.8C55.0383 13.2533 54.8449 12.7533 54.6583 12.3C54.4849 11.8467 54.3316 11.4467 54.1983 11.1C54.0649 10.7533 53.9583 10.48 53.8783 10.28ZM72.0123 18.32V21H62.7523V7.14H65.8723V18.32H72.0123Z" fill="white"/>
</svg>
